<?xml version="1.0"?>
<svg xmlns="http://www.w3.org/2000/svg" xmlns:xlink="http://www.w3.org/1999/xlink" version="1.1" id="Capa_1" x="0px" y="0px" viewBox="0 0 464.064 464.064" style="enable-background:new 0 0 464.064 464.064;" xml:space="preserve" width="512px" height="512px" class=""><g><g>
	<g>
		<path d="M458.912,326.495c-3.764-4.135-9.104-6.483-14.696-6.463h-1.656c-4.622-0.002-9.097,1.617-12.648,4.576l-54.032,68.224    c-7.563,9.619-19.131,15.225-31.368,15.2H300l-52-16h52c11.046,0,20-8.954,20-20c0-11.046-8.954-20-20-20H200    c-0.982,0.002-1.955-0.177-2.872-0.528l-66.448-25.56c-26.956-8.006-55.636-8.167-82.68-0.464v107.912l120.744,22.64h199.792    c2.364,0,4.608-1.045,6.128-2.856l82.192-98.024c0.234-0.254,0.483-0.494,0.744-0.72    C465.677,347.079,466.264,334.572,458.912,326.495z" data-original="#000000" class="active-path" data-old_color="#FFFfff" fill="#FFFfff"/>
	</g>
</g><g>
	<g>
		<path d="M376,144.032c-48.601,0-88,39.399-88,88s39.399,88,88,88c48.601,0,88-39.399,88-88    C463.943,183.454,424.577,144.089,376,144.032z M437.4,213.936h-0.008l-26.824,24.496l13.016,39.072    c1.391,4.194-0.881,8.721-5.075,10.112c-2.305,0.764-4.832,0.441-6.869-0.88L376,263.576l-35.64,23.2    c-3.705,2.406-8.66,1.353-11.067-2.352c-1.261-1.942-1.619-4.334-0.981-6.56l11.344-39.432l-25.256-24.68    c-3.16-3.088-3.218-8.153-0.13-11.313c1.273-1.303,2.954-2.133,4.762-2.351l34.36-4.144l15.408-31.432    c1.247-2.854,4.13-4.637,7.24-4.48c3.083,0.013,5.884,1.796,7.2,4.584l14.776,31.328l34.936,4.144    c4.387,0.525,7.518,4.506,6.994,8.893C439.718,210.884,438.815,212.642,437.4,213.936z" data-original="#000000" class="active-path" data-old_color="#FFFfff" fill="#FFFfff"/>
	</g>
</g><g>
	<g>
		<path d="M395.912,230.12l17.752-16.216l-21.976-2.6c-2.724-0.336-5.085-2.045-6.256-4.528l-9.6-20.288l-10.016,20.4    c-1.192,2.428-3.531,4.09-6.216,4.416l-22.096,2.672l16.728,16.336c2.103,2.056,2.908,5.101,2.096,7.928l-6.728,23.392    l22.024-14.312c2.651-1.723,6.069-1.723,8.72,0l20.8,13.528l-7.424-22.296C392.722,235.555,393.581,232.251,395.912,230.12z" data-original="#000000" class="active-path" data-old_color="#FFFfff" fill="#FFFfff"/>
	</g>
</g><g>
	<g>
		<path d="M288,8.032v88c0,4.418-3.582,8-8,8h-80c-4.418,0-8-3.582-8-8v-88H72v256h205.088    c-17.735-54.566,12.122-113.178,66.688-130.913c10.406-3.382,21.281-5.099,32.224-5.087c10.868,0.006,21.667,1.723,32,5.088V8.032    H288z M90.344,66.376l32-32c3.124-3.123,8.188-3.123,11.312,0l32,32c3.124,3.125,3.123,8.19-0.002,11.314    c-1.5,1.499-3.534,2.342-5.654,2.342h-8v16c0,4.418-3.582,8-8,8h-32c-4.418,0-8-3.582-8-8v-16h-8    c-4.418-0.001-7.999-3.583-7.998-8.002C88.002,69.909,88.845,67.876,90.344,66.376z M248,240.032c0,4.418-3.582,8-8,8H96    c-4.418,0-8-3.582-8-8v-48c0-4.418,3.582-8,8-8h144c4.418,0,8,3.582,8,8V240.032z" data-original="#000000" class="active-path" data-old_color="#FFFfff" fill="#FFFfff"/>
	</g>
</g><g>
	<g>
		<rect y="312.032" width="32" height="144" data-original="#000000" class="active-path" data-old_color="#FFFfff" fill="#FFFfff"/>
	</g>
</g><g>
	<g>
		<path d="M128,51.344l-13.192,13.192c3.125,1.171,5.194,4.159,5.192,7.496v16h16v-16c-0.002-3.337,2.067-6.325,5.192-7.496    L128,51.344z" data-original="#000000" class="active-path" data-old_color="#FFFfff" fill="#FFFfff"/>
	</g>
</g><g>
	<g>
		<rect x="208" y="8.032" width="64" height="80" data-original="#000000" class="active-path" data-old_color="#FFFfff" fill="#FFFfff"/>
	</g>
</g><g>
	<g>
		<rect x="104" y="200.032" width="128" height="32" data-original="#000000" class="active-path" data-old_color="#FFFfff" fill="#FFFfff"/>
	</g>
</g></g> </svg>
