<?xml version="1.0"?>
<svg xmlns="http://www.w3.org/2000/svg" xmlns:xlink="http://www.w3.org/1999/xlink" version="1.1" id="Layer_1" x="0px" y="0px" viewBox="0 0 512 512" style="enable-background:new 0 0 512 512;" xml:space="preserve" width="512px" height="512px"><g><g>
	<g>
		<g>
			<path d="M34.133,221.867C15.309,221.867,0,237.175,0,256c0,18.825,15.309,34.133,34.133,34.133     c18.825,0,34.133-15.309,34.133-34.133C68.267,237.175,52.958,221.867,34.133,221.867z" data-original="#000000" class="active-path" data-old_color="#FFF9F9" fill="#FFFAFA"/>
			<path d="M477.867,221.867c-18.825,0-34.133,15.309-34.133,34.133c0,18.825,15.309,34.133,34.133,34.133S512,274.825,512,256     C512,237.175,496.691,221.867,477.867,221.867z" data-original="#000000" class="active-path" data-old_color="#FFF9F9" fill="#FFFAFA"/>
			<path d="M256,68.267c18.825,0,34.133-15.309,34.133-34.133C290.133,15.309,274.825,0,256,0s-34.133,15.309-34.133,34.133     C221.867,52.958,237.175,68.267,256,68.267z" data-original="#000000" class="active-path" data-old_color="#FFF9F9" fill="#FFFAFA"/>
			<path d="M256,443.733c-18.825,0-34.133,15.309-34.133,34.133S237.175,512,256,512s34.133-15.309,34.133-34.133     S274.825,443.733,256,443.733z" data-original="#000000" class="active-path" data-old_color="#FFF9F9" fill="#FFFAFA"/>
			<path d="M74.983,388.75c-6.451,6.443-10.001,15.019-10.001,24.132s3.55,17.69,10.001,24.132     c6.443,6.451,15.019,10.001,24.132,10.001s17.69-3.55,24.132-10.001c6.451-6.443,10.001-15.019,10.001-24.132     s-3.55-17.69-10.001-24.132C110.362,375.847,87.877,375.847,74.983,388.75z" data-original="#000000" class="active-path" data-old_color="#FFF9F9" fill="#FFFAFA"/>
			<path d="M412.884,133.25c9.114,0,17.69-3.55,24.132-10.001c6.451-6.443,10.001-15.019,10.001-24.132s-3.55-17.69-10.001-24.132     c-12.894-12.902-35.371-12.902-48.265,0c-6.451,6.443-10.001,15.019-10.001,24.132s3.55,17.69,10.001,24.132     C395.194,129.7,403.77,133.25,412.884,133.25z" data-original="#000000" class="active-path" data-old_color="#FFF9F9" fill="#FFFAFA"/>
			<path d="M99.116,133.25c9.114,0,17.69-3.55,24.132-10.001c6.451-6.443,10.001-15.019,10.001-24.132s-3.55-17.69-10.001-24.132     c-12.894-12.902-35.371-12.902-48.265,0c-6.451,6.443-10.001,15.019-10.001,24.132s3.55,17.69,10.001,24.132     C81.427,129.7,90.003,133.25,99.116,133.25z" data-original="#000000" class="active-path" data-old_color="#FFF9F9" fill="#FFFAFA"/>
			<path d="M388.75,388.75c-6.451,6.443-10.001,15.019-10.001,24.132s3.55,17.69,10.001,24.132     c6.443,6.451,15.019,10.001,24.132,10.001c9.114,0,17.69-3.55,24.132-10.001c6.451-6.443,10.001-15.019,10.001-24.132     s-3.55-17.69-10.001-24.132C424.129,375.847,401.644,375.847,388.75,388.75z" data-original="#000000" class="active-path" data-old_color="#FFF9F9" fill="#FFFAFA"/>
			<path d="M256,85.333c-94.106,0-170.667,76.561-170.667,170.667S161.894,426.667,256,426.667S426.667,350.106,426.667,256     S350.106,85.333,256,85.333z" data-original="#000000" class="active-path" data-old_color="#FFF9F9" fill="#FFFAFA"/>
		</g>
	</g>
</g></g> </svg>
